<?xml version="1.0"?>
<svg version="1.1" xmlns="http://www.w3.org/2000/svg" width="400" height="60" style="border: dashed 2px #aaa"><path fill="#" d=""/><path fill="#" d="M35.936,46.448c0,0.544-0.192,0.832-0.768,0.832l-2.304,0c-0.576,0-0.768-0.288-0.768-0.832l0-8.704c0-1.76-0.48-3.008-2.432-3.008c-1.248,0-2.784,0.672-3.776,1.536l0,10.208c0,0.544-0.224,0.8-0.768,0.8l-2.336,0c-0.48,0-0.768-0.256-0.768-0.768l0-13.952c0-0.512,0.224-0.8,0.8-0.8l2.08,0c0.448,0,0.736,0.128,0.768,0.608l0.032,0.832c1.472-1.184,3.328-1.856,5.184-1.856c3.584,0,5.056,2.24,5.056,5.728l0,9.376z M55.44,39.472c0,0.768-0.256,0.928-1.056,0.928l-9.376,0c0.256,2.464,2.048,4.16,4.576,4.16c1.344,0,2.752-0.32,3.936-0.768c0.128-0.032,0.224-0.096,0.352-0.096c0.224,0,0.384,0.128,0.448,0.384l0.448,1.632c0.032,0.16,0.064,0.288,0.064,0.384c0,0.224-0.128,0.384-0.512,0.544c-1.568,0.704-3.712,1.024-5.376,1.024c-5.024,0-8-3.2-8-8.192c0-4.8,3.168-8.128,7.936-8.128c1.952,0,3.552,0.736,4.672,1.92c1.472,1.536,1.888,3.552,1.888,5.728l0,0.48z M51.632,37.872l0-0.352c-0.064-1.664-1.024-3.2-2.976-3.2c-2.08,0-3.328,1.664-3.584,3.552l6.56,0z M80.832,32.176c0,0.096,0,0.16-0.032,0.256l-4.288,14.08c-0.16,0.48-0.416,0.768-0.992,0.768l-2.176,0c-0.576,0-0.832-0.288-0.992-0.8l-2.656-9.12l-0.064,0l-2.624,9.184c-0.16,0.512-0.448,0.736-1.024,0.736l-2.144,0c-0.512,0-0.864-0.32-0.992-0.768l-4.192-14.08c-0.032-0.096-0.032-0.192-0.032-0.256c0-0.288,0.224-0.416,0.64-0.416l2.624,0c0.608,0,0.8,0.224,0.896,0.608l2.304,10.112l0.032,0l2.976-10.08c0.128-0.48,0.448-0.64,0.864-0.64l1.792,0c0.48,0,0.768,0.16,0.864,0.544l2.912,10.24l0.032,0l2.4-10.08c0.096-0.448,0.352-0.704,0.928-0.704l2.464,0c0.384,0,0.48,0.192,0.48,0.416z M95.504,42.704c0,3.36-2.912,4.96-6.176,4.96c-1.664,0-3.488-0.48-4.928-1.12c-0.288-0.128-0.384-0.32-0.384-0.512c0-0.096,0.032-0.192,0.064-0.288l0.512-1.632c0.096-0.32,0.256-0.448,0.448-0.448c0.096,0,0.192,0,0.352,0.064c1.408,0.576,2.912,0.992,4.032,0.992c1.408,0,2.368-0.64,2.368-1.696c0-0.896-0.608-1.376-1.92-1.888l-2.528-0.96c-1.824-0.672-3.296-2.08-3.296-4.256c0-3.136,2.944-4.576,5.792-4.576c1.536,0,3.04,0.256,4.64,0.96c0.256,0.128,0.384,0.256,0.384,0.448c0,0.096-0.032,0.192-0.064,0.32l-0.544,1.728c-0.064,0.224-0.224,0.352-0.448,0.352c-0.096,0-0.224-0.032-0.32-0.064c-1.056-0.416-2.432-0.768-3.456-0.768c-1.344,0-2.016,0.736-2.016,1.472c0,0.704,0.352,1.152,1.568,1.632l2.88,1.184c1.696,0.704,3.04,2.016,3.04,4.096z M124.944,46.672c0,0.384-0.256,0.608-0.64,0.608l-1.536,0c-1.664,0-2.4-0.8-2.624-1.888l-0.064,0c-0.8,1.184-2.88,2.272-4.64,2.272c-4.512,0-6.56-3.712-6.56-7.872c0-5.536,3.328-8.448,6.912-8.448c1.696,0,3.296,0.768,4.096,1.856l0.064-0.864c0.032-0.352,0.288-0.576,0.672-0.576l2.24,0c0.416,0,0.672,0.224,0.672,0.704l0,11.104c0,0.448,0.064,0.768,0.192,0.928c0.096,0.096,0.224,0.128,0.384,0.128l0.256,0c0.384,0,0.576,0.128,0.576,0.544l0,1.504z M119.664,42.32l0-6.176c-0.64-0.928-1.952-1.632-3.168-1.632c-1.952,0-3.616,1.664-3.616,5.024c0,2.688,1.024,4.96,3.392,4.96c1.568,0,2.912-1.184,3.392-2.176z M144.352,39.312c0,2.432-0.736,4.64-2.08,6.208c-1.184,1.344-2.848,2.176-4.928,2.176c-1.472,0-2.944-0.544-3.872-1.504l0,7.168c0,0.64-0.288,0.832-0.832,0.832l-2.24,0c-0.512,0-0.768-0.288-0.768-0.832l0-20.864c0-0.544,0.256-0.736,0.768-0.736l1.92,0c0.544,0,0.832,0.128,0.864,0.608l0.032,0.864c0.928-1.056,2.752-1.856,4.48-1.856c2.112,0,3.584,0.8,4.64,1.952c1.376,1.504,2.016,3.744,2.016,5.984z M140.32,39.504c0-1.504-0.288-2.816-0.928-3.712c-0.608-0.864-1.504-1.312-2.624-1.312c-1.184,0-2.656,0.768-3.296,1.568l0,6.976c0.64,0.864,1.92,1.568,3.136,1.568c1.12,0,2.016-0.512,2.56-1.184c0.8-0.992,1.152-2.336,1.152-3.904z M164.08,39.312c0,2.432-0.736,4.64-2.08,6.208c-1.184,1.344-2.848,2.176-4.928,2.176c-1.472,0-2.944-0.544-3.872-1.504l0,7.168c0,0.64-0.288,0.832-0.832,0.832l-2.24,0c-0.512,0-0.768-0.288-0.768-0.832l0-20.864c0-0.544,0.256-0.736,0.768-0.736l1.92,0c0.544,0,0.832,0.128,0.864,0.608l0.032,0.864c0.928-1.056,2.752-1.856,4.48-1.856c2.112,0,3.584,0.8,4.64,1.952c1.376,1.504,2.016,3.744,2.016,5.984z M160.048,39.504c0-1.504-0.288-2.816-0.928-3.712c-0.608-0.864-1.504-1.312-2.624-1.312c-1.184,0-2.656,0.768-3.296,1.568l0,6.976c0.64,0.864,1.92,1.568,3.136,1.568c1.12,0,2.016-0.512,2.56-1.184c0.8-0.992,1.152-2.336,1.152-3.904z"/></svg>
